<svg width="26" height="26" viewBox="0 0 26 26" fill="none" xmlns="http://www.w3.org/2000/svg">
<g clip-path="url(#clip0_214_191)">
<path d="M9.19141 22.1406C9.19141 23.4006 10.2165 24.4257 11.4765 24.4257C12.7365 24.4257 13.7616 23.4006 13.7616 22.1406C13.7616 20.8806 12.7365 19.8555 11.4765 19.8555C10.2165 19.8555 9.19141 20.8806 9.19141 22.1406ZM11.4765 21.3789C11.8965 21.3789 12.2382 21.7206 12.2382 22.1406C12.2382 22.5606 11.8965 22.9023 11.4765 22.9023C11.0565 22.9023 10.7148 22.5606 10.7148 22.1406C10.7148 21.7206 11.0565 21.3789 11.4765 21.3789Z" fill="white"/>
<path d="M16.8594 22.1406C16.8594 23.4006 17.8845 24.4257 19.1445 24.4257C20.4045 24.4257 21.4296 23.4006 21.4296 22.1406C21.4296 20.8806 20.4045 19.8555 19.1445 19.8555C17.8845 19.8555 16.8594 20.8806 16.8594 22.1406ZM19.1445 21.3789C19.5645 21.3789 19.9062 21.7206 19.9062 22.1406C19.9062 22.5606 19.5645 22.9023 19.1445 22.9023C18.7245 22.9023 18.3828 22.5606 18.3828 22.1406C18.3828 21.7206 18.7245 21.3789 19.1445 21.3789Z" fill="white"/>
<path d="M25.2379 4.62129H5.95741C5.6966 3.70831 5.45357 2.85763 5.24481 2.12695C5.15142 1.79993 4.85248 1.57446 4.5124 1.57446H0.761707C0.341042 1.57446 0 1.9155 0 2.33617C0 2.75684 0.341042 3.09788 0.761707 3.09788H3.93782C4.78961 6.0795 6.78092 13.0493 7.61575 15.9712L7.32716 16.5484C6.56673 18.0694 7.6742 19.8554 9.37108 19.8554H22.1911C22.6117 19.8554 22.9528 19.5144 22.9528 19.0937C22.9528 18.6731 22.6117 18.332 22.1911 18.332H9.37108C8.80457 18.332 8.43666 17.736 8.68975 17.2297L8.90029 16.8086H22.1911C22.5311 16.8086 22.83 16.5832 22.9235 16.2562L25.9703 5.59226C26.1091 5.10655 25.7442 4.62129 25.2379 4.62129ZM21.6165 15.2852H9.00414C8.58911 13.8325 7.42756 9.76713 6.39265 6.1447H24.2281L21.6165 15.2852Z" fill="white"/>
</g>
<defs>
<clipPath id="clip0_214_191">
<rect width="26" height="26" fill="white"/>
</clipPath>
</defs>
</svg>
