<svg width="16" height="16" viewBox="0 0 16 16" fill="none" xmlns="http://www.w3.org/2000/svg">
<path d="M6.46395 9.216C6.41595 9.216 5.35995 9.216 4.87995 9.216C4.62395 9.216 4.54395 9.12 4.54395 8.88C4.54395 8.24 4.54395 7.584 4.54395 6.944C4.54395 6.688 4.63995 6.608 4.87995 6.608H6.46395C6.46395 6.56 6.46395 5.632 6.46395 5.2C6.46395 4.56 6.57594 3.952 6.89594 3.392C7.23194 2.816 7.71195 2.432 8.31994 2.208C8.71994 2.064 9.11995 2 9.55194 2H11.1199C11.3439 2 11.4399 2.096 11.4399 2.32V4.144C11.4399 4.368 11.3439 4.464 11.1199 4.464C10.6879 4.464 10.2559 4.464 9.82394 4.48C9.39194 4.48 9.16794 4.688 9.16794 5.136C9.15194 5.616 9.16794 6.08 9.16794 6.576H11.0239C11.2799 6.576 11.3759 6.672 11.3759 6.928V8.864C11.3759 9.12 11.2959 9.2 11.0239 9.2C10.4479 9.2 9.21594 9.2 9.16794 9.2V14.416C9.16794 14.688 9.08794 14.784 8.79994 14.784C8.12794 14.784 7.47195 14.784 6.79995 14.784C6.55995 14.784 6.46395 14.688 6.46395 14.448C6.46395 12.768 6.46395 9.264 6.46395 9.216Z" fill="white"/>
</svg>
