<svg width="14" height="14" viewBox="0 0 14 14" fill="none" xmlns="http://www.w3.org/2000/svg">
<path d="M12.3091 1.6918C12.1463 1.52689 11.9524 1.39596 11.7386 1.30659C11.5248 1.21722 11.2954 1.1712 11.0637 1.1712C10.8319 1.1712 10.6025 1.21722 10.3887 1.30659C10.1749 1.39596 9.98103 1.52689 9.81824 1.6918L8.69824 2.8293L11.1716 5.30263L12.2916 4.18263C12.4576 4.02101 12.5899 3.82801 12.6808 3.61485C12.7717 3.40168 12.8193 3.17259 12.8209 2.94087C12.8226 2.70915 12.7782 2.47942 12.6903 2.265C12.6024 2.05058 12.4728 1.85574 12.3091 1.6918Z" fill="white"/>
<path d="M7.86896 3.65762L2.9748 8.55179C2.93092 8.5969 2.89361 8.64795 2.86396 8.70346L1.2423 11.976C1.19525 12.0643 1.17172 12.1632 1.17398 12.2633C1.17623 12.3634 1.20419 12.4611 1.25516 12.5473C1.30613 12.6334 1.37841 12.705 1.46503 12.7551C1.55166 12.8052 1.64972 12.8322 1.7498 12.8335C1.83868 12.8338 1.92647 12.8139 2.00646 12.7751L5.27896 11.1535C5.33447 11.1238 5.38552 11.0865 5.43063 11.0426L10.3248 6.14846L7.86896 3.65762Z" fill="white"/>
<path d="M12.2493 12.8333H6.99935C6.84464 12.8333 6.69627 12.7719 6.58687 12.6625C6.47747 12.5531 6.41602 12.4047 6.41602 12.25C6.41602 12.0953 6.47747 11.9469 6.58687 11.8375C6.69627 11.7281 6.84464 11.6667 6.99935 11.6667H12.2493C12.4041 11.6667 12.5524 11.7281 12.6618 11.8375C12.7712 11.9469 12.8327 12.0953 12.8327 12.25C12.8327 12.4047 12.7712 12.5531 12.6618 12.6625C12.5524 12.7719 12.4041 12.8333 12.2493 12.8333Z" fill="white"/>
</svg>
