<svg width="28" height="28" viewBox="0 0 28 28" fill="none" xmlns="http://www.w3.org/2000/svg">
<g clip-path="url(#clip0_238_1367)">
<path d="M27.2378 20.5492L23.3303 16.6417C21.9348 15.2462 19.5624 15.8044 19.0042 17.6186C18.5855 18.8746 17.19 19.5724 15.934 19.2932C13.143 18.5954 9.37503 14.9671 8.67726 12.0364C8.25861 10.7804 9.09592 9.38488 10.3519 8.96628C12.1661 8.40807 12.7243 6.03567 11.3288 4.64014L7.42129 0.732653C6.30486 -0.244218 4.63023 -0.244218 3.65336 0.732653L1.00185 3.38416C-1.64966 6.17522 1.28096 13.5715 7.83995 20.1305C14.3989 26.6895 21.7952 29.7597 24.5863 26.9686L27.2378 24.3171C28.2147 23.2007 28.2147 21.526 27.2378 20.5492Z" fill="white"/>
</g>
<defs>
<clipPath id="clip0_238_1367">
<rect width="28" height="28" fill="white"/>
</clipPath>
</defs>
</svg>
