<svg width="32" height="32" viewBox="0 0 32 32" fill="none" xmlns="http://www.w3.org/2000/svg">
<path d="M31.9997 13.1334C31.9997 7.00126 26.0507 2.01245 18.7387 2.01245C11.4265 2.01245 5.47754 7.00131 5.47754 13.1334C5.47754 19.2656 11.4265 24.2544 18.7387 24.2544C19.3535 24.2544 19.9705 24.2188 20.577 24.1486C23.3934 25.9377 25.4725 26.917 26.7611 27.0602C26.806 27.0651 26.8511 27.0676 26.8953 27.0676C27.3092 27.0676 27.6923 26.8613 27.9204 26.5154C28.1754 26.1285 28.192 25.6376 27.9649 25.2368C27.9543 25.2177 26.9599 23.4034 27.2468 21.6702C30.2723 19.553 31.9997 16.4589 31.9997 13.1334ZM15.1373 14.813C14.0522 14.813 13.1729 13.9335 13.1729 12.8486C13.1729 11.7637 14.0522 10.8842 15.1373 10.8842C16.2221 10.8842 17.1017 11.7638 17.1017 12.8486C17.1018 13.9335 16.2221 14.813 15.1373 14.813ZM22.3404 14.813C21.2553 14.813 20.3757 13.9335 20.3757 12.8486C20.3757 11.7637 21.2553 10.8842 22.3404 10.8842C23.4253 10.8842 24.3048 11.7638 24.3048 12.8486C24.3048 13.9335 23.4252 14.813 22.3404 14.813Z" fill="white"/>
<path d="M8.27937 22.0311C6.96356 20.9415 5.92633 19.6662 5.19692 18.2406C4.42782 16.7376 4.03791 15.1388 4.03791 13.4886C4.03791 11.8383 4.42787 10.2395 5.19692 8.73653C5.25579 8.62149 5.31744 8.50787 5.38024 8.39478C2.13229 10.2556 0 13.3613 0 16.872C0 20.0261 1.69908 22.9506 4.6674 24.9178C5.21563 27.073 3.94342 29.3532 3.92999 29.3765C3.85417 29.5102 3.85976 29.6752 3.94437 29.8036C4.0206 29.9192 4.14933 29.9877 4.28596 29.9877C4.30107 29.9877 4.31613 29.9868 4.3314 29.9851C5.81647 29.8202 8.43163 28.3108 10.4128 27.0381C11.0801 27.1287 11.7621 27.1745 12.4427 27.1745C15.0453 27.1745 17.4634 26.5089 19.4631 25.3732C19.0163 25.409 18.5663 25.4281 18.1177 25.4281C14.4191 25.4281 10.9252 24.2217 8.27937 22.0311Z" fill="white"/>
</svg>
