<svg width="200" height="73" viewBox="0 0 200 73" fill="none" xmlns="http://www.w3.org/2000/svg">
<g clip-path="url(#clip0_126_604)">
<path d="M67.6984 47.6176C67.5586 47.4908 67.4008 47.3856 67.2266 47.3006C67.0524 47.2163 66.8744 47.1395 66.695 47.0708C66.4886 46.9918 66.2905 46.9075 66.0998 46.8172C65.9091 46.7277 65.7559 46.621 65.6392 46.4965C65.5226 46.3726 65.4643 46.2205 65.4643 46.0414C65.4643 45.8042 65.5555 45.614 65.7379 45.4715C65.9203 45.3291 66.1648 45.2575 66.4722 45.2575C66.6942 45.2575 66.9215 45.2947 67.1548 45.3686C67.3873 45.4424 67.6019 45.5297 67.7978 45.6297L68.0917 45.0441C67.8748 44.9121 67.6244 44.8017 67.3417 44.7114C67.0583 44.6219 66.7316 44.5771 66.3615 44.5771C66.0333 44.5876 65.7424 44.6577 65.4889 44.7868C65.2347 44.9158 65.0351 45.0926 64.89 45.3171C64.7442 45.5417 64.6717 45.8042 64.6717 46.1048C64.6717 46.3525 64.7195 46.5636 64.8145 46.7382C64.9095 46.9127 65.0366 47.0589 65.1951 47.1775C65.3536 47.2961 65.5256 47.3968 65.711 47.4781C65.8964 47.5602 66.0789 47.6355 66.2583 47.7042C66.449 47.778 66.6284 47.8615 66.7981 47.9533C66.9671 48.0458 67.104 48.1562 67.2071 48.286C67.3103 48.415 67.3619 48.5777 67.3619 48.7731C67.3619 48.9999 67.3036 49.1819 67.1869 49.3191C67.0703 49.4564 66.9238 49.5578 66.7466 49.6242C66.5693 49.6899 66.3907 49.7234 66.2112 49.7234C66.0422 49.7234 65.8673 49.6981 65.6878 49.6481C65.5076 49.5981 65.3356 49.5317 65.1719 49.4504C65.0082 49.3684 64.8624 49.2826 64.7352 49.1931L64.3943 49.795C64.5476 49.8957 64.7225 49.992 64.9177 50.0837C65.1136 50.1762 65.3267 50.2516 65.5562 50.3097C65.7865 50.3679 66.028 50.397 66.2822 50.397C66.668 50.397 67.0015 50.3254 67.2819 50.1829C67.5623 50.0405 67.7776 49.845 67.9287 49.5974C68.0797 49.3497 68.1545 49.0752 68.1545 48.7738C68.1545 48.4993 68.1134 48.2703 68.0319 48.0853C67.9496 47.8996 67.8382 47.7444 67.6984 47.6176Z" fill="white"/>
<path d="M70.7334 45.3454H72.2333V50.3328H73.0027V45.3454H74.5422V44.6091H70.7334V45.3454Z" fill="white"/>
<path d="M80.6366 47.6369C80.7899 47.4601 80.8998 47.2632 80.9656 47.0469C81.0314 46.8306 81.0651 46.609 81.0651 46.3822C81.0651 46.0921 81.0135 45.8377 80.9103 45.6184C80.8071 45.3998 80.6643 45.2148 80.4819 45.0642C80.2994 44.9135 80.0848 44.8001 79.8389 44.724C79.5929 44.6472 79.3244 44.6091 79.0336 44.6091H77.5098V50.3328H78.2792V48.227H79.1285C79.1936 48.227 79.2564 48.2247 79.3177 48.221L80.6681 50.3328H81.5571L80.12 48.0263C80.3279 47.9234 80.5006 47.7936 80.6366 47.6369ZM79.6803 47.3878C79.5293 47.4564 79.3401 47.4907 79.1128 47.4907H78.2799V45.3454H79.1689C79.37 45.3454 79.5405 45.3797 79.6811 45.4483C79.8209 45.5169 79.9353 45.6042 80.022 45.7094C80.1095 45.8146 80.1731 45.9295 80.2127 46.054C80.2523 46.1779 80.2725 46.2979 80.2725 46.4143C80.2725 46.5255 80.2538 46.6441 80.2172 46.7709C80.1798 46.8977 80.1192 47.0148 80.0348 47.123C79.9488 47.2311 79.8306 47.3192 79.6803 47.3878Z" fill="white"/>
<path d="M86.4209 44.3719L83.9138 50.3328H84.6675L86.4111 46.0749L88.0875 50.3328H88.9683L86.4687 44.3719H86.4209Z" fill="white"/>
<path d="M90.928 45.3454H92.4279V50.3328H93.1972V45.3454H94.7368V44.6091H90.928V45.3454Z" fill="white"/>
<path d="M101.18 48.306C101.18 48.5649 101.12 48.7954 100.998 48.999C100.876 49.2019 100.709 49.3615 100.498 49.4779C100.286 49.5943 100.045 49.6525 99.7755 49.6525C99.516 49.6525 99.2835 49.5943 99.0771 49.4779C98.8707 49.3615 98.7055 49.2019 98.5814 48.999C98.4573 48.7961 98.3952 48.5649 98.3952 48.306V44.6091H97.6333V48.3299C97.6333 48.7469 97.7283 49.1109 97.9189 49.422C98.1096 49.7338 98.366 49.9732 98.6883 50.1426C99.0106 50.3111 99.3732 50.3962 99.7755 50.3962C100.178 50.3962 100.541 50.3119 100.866 50.1426C101.192 49.974 101.451 49.7338 101.644 49.422C101.837 49.1109 101.933 48.7461 101.933 48.3299V44.6091H101.18V48.306H101.18Z" fill="white"/>
<path d="M108.119 47.6176C107.979 47.4908 107.821 47.3856 107.647 47.3006C107.472 47.2163 107.295 47.1395 107.116 47.0708C106.909 46.9918 106.711 46.9075 106.52 46.8172C106.33 46.7277 106.176 46.621 106.061 46.4965C105.944 46.3726 105.886 46.2205 105.886 46.0414C105.886 45.8042 105.977 45.614 106.159 45.4715C106.342 45.3291 106.586 45.2575 106.894 45.2575C107.116 45.2575 107.343 45.2947 107.576 45.3686C107.809 45.4424 108.023 45.5297 108.219 45.6297L108.513 45.0441C108.296 44.9121 108.046 44.8017 107.763 44.7114C107.48 44.6219 107.153 44.5771 106.783 44.5771C106.455 44.5876 106.164 44.6577 105.91 44.7868C105.656 44.9158 105.456 45.0926 105.311 45.3171C105.166 45.5417 105.093 45.8042 105.093 46.1048C105.093 46.3525 105.141 46.5636 105.236 46.7382C105.331 46.9127 105.458 47.0589 105.616 47.1775C105.775 47.2961 105.947 47.3968 106.132 47.4781C106.318 47.5602 106.5 47.6355 106.68 47.7042C106.87 47.778 107.05 47.8615 107.22 47.9533C107.389 48.0458 107.525 48.1562 107.629 48.286C107.732 48.415 107.783 48.5777 107.783 48.7731C107.783 48.9999 107.725 49.1819 107.608 49.3191C107.492 49.4564 107.345 49.5578 107.168 49.6242C106.991 49.6899 106.812 49.7234 106.633 49.7234C106.464 49.7234 106.289 49.6981 106.109 49.6481C105.929 49.5981 105.757 49.5317 105.593 49.4504C105.43 49.3684 105.284 49.2826 105.157 49.1931L104.816 49.795C104.969 49.8957 105.144 49.992 105.339 50.0837C105.535 50.1762 105.748 50.2516 105.978 50.3097C106.208 50.3679 106.449 50.397 106.704 50.397C107.089 50.397 107.423 50.3254 107.703 50.1829C107.984 50.0405 108.199 49.845 108.35 49.5974C108.501 49.3497 108.576 49.0752 108.576 48.7738C108.576 48.4993 108.535 48.2703 108.453 48.0853C108.37 47.8996 108.26 47.7444 108.119 47.6176Z" fill="white"/>
<path d="M120.505 45.4208C120.233 45.1492 119.921 44.9352 119.569 44.7793C119.217 44.6234 118.84 44.5458 118.439 44.5458C118.031 44.5458 117.652 44.6234 117.3 44.7793C116.948 44.9352 116.638 45.1485 116.368 45.4208C116.098 45.6923 115.888 46.0041 115.737 46.3547C115.586 46.706 115.511 47.079 115.511 47.4751C115.511 47.8921 115.586 48.277 115.737 48.6306C115.888 48.9842 116.098 49.293 116.368 49.557C116.638 49.8211 116.948 50.027 117.3 50.1747C117.651 50.3224 118.031 50.3962 118.439 50.3962C118.841 50.3962 119.218 50.3209 119.569 50.1702C119.921 50.0195 120.233 49.8114 120.505 49.5451C120.778 49.2788 120.991 48.9685 121.144 48.6149C121.297 48.2613 121.374 47.8816 121.374 47.4751C121.374 47.079 121.297 46.706 121.144 46.3547C120.991 46.0041 120.778 45.6923 120.505 45.4208ZM120.414 48.3262C120.303 48.5873 120.152 48.8186 119.962 49.0192C119.771 49.2199 119.546 49.3773 119.287 49.4899C119.028 49.6033 118.751 49.66 118.454 49.66C118.153 49.66 117.873 49.6033 117.613 49.4899C117.354 49.3765 117.127 49.2199 116.931 49.0192C116.735 48.8186 116.581 48.5881 116.47 48.3262C116.359 48.0651 116.303 47.7839 116.303 47.4833C116.303 47.1827 116.356 46.8985 116.462 46.6322C116.567 46.3659 116.718 46.1324 116.914 45.9317C117.11 45.7311 117.337 45.5729 117.597 45.4566C117.856 45.3402 118.137 45.2828 118.438 45.2828C118.734 45.2828 119.012 45.3395 119.271 45.4528C119.53 45.5662 119.758 45.7236 119.954 45.9235C120.149 46.1242 120.303 46.3577 120.414 46.624C120.526 46.8903 120.581 47.1745 120.581 47.4751C120.581 47.7809 120.526 48.0644 120.414 48.3262Z" fill="white"/>
<path d="M128.659 48.7515L124.453 44.4354H124.414V50.3329H125.184L125.168 46.2518L129.382 50.5149H129.405V44.6092H128.644L128.659 48.7515Z" fill="white"/>
<path d="M133.571 49.5965V47.8234H136.213V47.0872H133.571V45.3454H136.531V44.6091H132.802V50.3328H136.642V49.5965H133.571Z" fill="white"/>
<path d="M124.537 25.4294C124.394 25.3108 124.195 25.2869 124.028 25.3682C123.461 25.6442 121.954 26.376 120.052 26.1545C118.94 26.0247 118.046 25.7248 117.853 25.6569C117.534 25.4645 115.595 24.3254 112.969 23.4646C109.2 22.2286 105.83 22.1868 103.228 23.3445C100.657 24.4873 98.109 26.2693 95.2086 28.9518C93.7013 30.3459 92.392 31.6745 91.2054 33.0149C90.6155 33.6811 89.9934 34.3949 89.4454 35.1454C88.91 35.8786 88.338 36.5209 87.7443 37.055C87.5402 37.2385 87.3301 37.4123 87.1193 37.5727C85.2448 38.9959 82.9964 39.5278 80.9507 39.0302C79.3275 38.6356 78.0138 37.4839 77.3461 35.8712C76.5827 34.0264 77.5674 32.2041 77.9726 31.573C79.3671 31.2784 80.3346 30.3885 80.7802 28.9823C81.1242 27.8963 81.027 26.8855 81.0225 26.843C81.0083 26.699 80.9275 26.5692 80.8049 26.4916C80.6815 26.4141 80.5298 26.3976 80.3929 26.4461C76.7083 27.7605 76.9902 30.4534 77.1285 31.1374C76.6036 31.9728 75.5658 34.0421 76.472 36.2315C77.2563 38.1262 78.8071 39.4808 80.7272 39.9478C81.3044 40.088 81.8943 40.1574 82.488 40.1574C84.2847 40.1574 86.1121 39.5248 87.6927 38.3246C87.9245 38.1485 88.1548 37.9576 88.3776 37.7577C89.0199 37.1803 89.6368 36.4888 90.2103 35.7026C90.7344 34.9842 91.3154 34.3181 91.9143 33.6415C93.0799 32.3249 94.3682 31.018 95.8517 29.6455C98.6735 27.0354 101.139 25.3078 103.613 24.2083C109.41 21.6311 117.319 26.4387 117.398 26.4879C117.424 26.5036 117.451 26.5177 117.48 26.5282C117.525 26.5446 118.568 26.934 119.943 27.0944C121.265 27.248 122.402 27.0145 123.309 26.6968C123.098 27.0175 122.806 27.3554 122.401 27.6441C121.413 28.349 120.365 28.3349 119.96 28.2968C119.832 28.2849 119.705 28.3252 119.608 28.408C119.51 28.4915 119.451 28.6101 119.443 28.7384C119.426 29.0167 119.006 30.0185 118.464 31.0703C118.374 31.2455 118.135 31.7125 118.265 34.5531C118.265 34.5717 118.266 34.5911 118.266 34.6098C118.266 35.1521 117.898 35.6295 117.371 35.7705C116.956 35.8809 116.511 35.7623 116.209 35.4601L116.141 35.3923C115.752 35.0081 115.167 34.4278 113.958 32.8083C112.166 30.4071 114.293 28.6318 114.384 28.5572C114.587 28.3938 114.618 28.0969 114.455 27.8948C114.291 27.6919 113.994 27.6598 113.79 27.8231C112.766 28.6452 111.325 30.8621 113.199 33.373C114.45 35.0491 115.066 35.6593 115.474 36.0636L115.541 36.1293C116.081 36.6686 116.877 36.8812 117.617 36.6835C118.557 36.4321 119.214 35.5795 119.214 34.6113C119.214 34.5799 119.212 34.5486 119.211 34.5113C119.095 31.9937 119.285 31.5454 119.306 31.5029C119.557 31.0165 120.075 29.9715 120.292 29.2569C120.934 29.2546 121.967 29.1174 122.952 28.4139C124.093 27.6001 124.532 26.5028 124.693 25.921C124.741 25.739 124.681 25.5473 124.537 25.4294Z" fill="white"/>
<path d="M212.739 54.4885C212.603 54.3751 212.411 54.352 212.251 54.4296C210.895 55.2837 208.156 55.4747 206.33 54.7063C195.364 48.2047 188.603 53.1727 180.778 61.7622C179.651 62.9371 178.663 64.5745 177.459 65.6359C172.841 70.2198 164.579 66.4602 168.091 60.3793C170.269 60.1077 171.256 57.3768 171.015 55.8432C170.994 55.559 170.678 55.3598 170.411 55.4627C166.878 56.7234 167.148 59.3051 167.28 59.9615C163.349 66.9294 172.606 71.5938 178.066 66.3088C179.318 65.2145 180.278 63.6032 181.458 62.362C189.932 52.7706 196.573 49.8987 205.894 55.503C206.871 56.0311 210.111 56.4272 211.561 55.7029C210.037 57.9997 207.915 56.707 207.854 57.6603C207.33 59.8041 206.46 59.1552 206.724 63.2362C206.752 63.7741 206.391 64.2649 205.867 64.4036C204.694 64.652 204.012 63.2735 202.594 61.5631C200.535 58.5614 203.644 57.7461 203.071 56.8509C201.961 55.9692 199.857 59.96 201.866 62.1031C203.126 63.7838 203.63 64.2664 204.111 64.746C205.329 66.041 207.692 65.0683 207.633 63.2899C207.467 59.3252 207.815 60.759 208.667 58.1556C209.282 58.1534 210.273 58.0213 211.218 57.3477C212.243 56.5951 213.251 55.0368 212.739 54.4885Z" fill="white"/>
<path d="M-11.7053 18.5317C-11.5684 18.6451 -11.377 18.6682 -11.217 18.5906C-9.86069 17.7365 -7.12187 17.5456 -5.29598 18.3139C5.67055 24.8156 12.4313 19.8476 20.256 11.258C21.3835 10.0831 22.3712 8.44577 23.575 7.38429C28.1935 2.80045 36.4556 6.56002 32.9437 12.641C30.7649 12.9125 29.7779 15.6434 30.0194 17.1771C30.0404 17.4613 30.3566 17.6604 30.6236 17.5575C34.1565 16.2968 33.8865 13.7151 33.7542 13.0587C37.6856 6.09156 28.4291 1.42716 22.9679 6.71219C21.7162 7.80649 20.7562 9.41773 19.5763 10.659C11.1019 20.2504 4.46152 23.1223 -4.85932 17.518C-5.83582 16.9898 -9.07561 16.5937 -10.5261 17.318C-9.00233 15.0213 -6.87961 16.314 -6.81905 15.3607C-6.29491 13.2168 -5.42458 13.8658 -5.68927 9.78474C-5.71694 9.24691 -5.3558 8.75608 -4.83241 8.61733C-3.65926 8.36893 -2.97736 9.74744 -1.55897 11.4579C0.500198 14.4596 -2.60949 15.2749 -2.036 16.17C-0.925668 17.0517 1.17761 13.0609 -0.831458 10.9178C-2.09133 9.23722 -2.59528 8.75459 -3.07606 8.27495C-4.29406 6.97998 -6.6568 7.9527 -6.59773 9.73103C-6.43249 13.6957 -6.78017 12.262 -7.6318 14.8654C-8.24715 14.8676 -9.23786 14.9996 -10.183 15.6732C-11.2081 16.4259 -12.216 17.9834 -11.7053 18.5317Z" fill="white"/>
</g>
<defs>
<clipPath id="clip0_126_604">
<rect width="187" height="69" fill="white" transform="translate(7 2)"/>
</clipPath>
</defs>
</svg>
