<svg width="28" height="28" viewBox="0 0 28 28" fill="none" xmlns="http://www.w3.org/2000/svg">
<path fill-rule="evenodd" clip-rule="evenodd" d="M25.6663 14C25.6663 20.4432 20.4429 25.6666 13.9997 25.6666C7.55635 25.6666 2.33301 20.4432 2.33301 14C2.33301 7.55665 7.55635 2.33331 13.9997 2.33331C20.4429 2.33331 25.6663 7.55665 25.6663 14ZM15.1663 9.33331C15.1663 9.97764 14.644 10.5 13.9997 10.5C13.3553 10.5 12.833 9.97764 12.833 9.33331C12.833 8.68899 13.3553 8.16665 13.9997 8.16665C14.644 8.16665 15.1663 8.68899 15.1663 9.33331ZM13.9997 11.6666C13.3553 11.6666 12.833 12.189 12.833 12.8333V18.6666C12.833 19.311 13.3553 19.8333 13.9997 19.8333C14.644 19.8333 15.1663 19.311 15.1663 18.6666V12.8333C15.1663 12.189 14.644 11.6666 13.9997 11.6666Z" fill="#01A982"/>
</svg>
