<svg width="12" height="14" viewBox="0 0 12 14" fill="none" xmlns="http://www.w3.org/2000/svg">
<path d="M9.48859 3.72046C9.32798 3.72046 9.19727 3.85117 9.19727 4.01179C9.19727 4.1724 9.32798 4.30312 9.48859 4.30312C9.64923 4.30312 9.77992 4.17243 9.77992 4.01179C9.77992 3.85115 9.64923 3.72046 9.48859 3.72046Z" fill="white"/>
<path d="M5.99971 4.91724C4.5756 4.91724 3.41699 6.07585 3.41699 7.49996C3.41699 8.92406 4.5756 10.0827 5.99971 10.0827C7.42384 10.0827 8.58245 8.92409 8.58245 7.49998C8.58245 6.07587 7.42384 4.91724 5.99971 4.91724Z" fill="white"/>
<path d="M8.71038 1.5H3.28962C1.47572 1.5 0 2.97572 0 4.78964V10.2104C0 12.0243 1.47572 13.5 3.28962 13.5H8.71038C10.5243 13.5 12 12.0243 12 10.2104V4.78964C12 2.97572 10.5243 1.5 8.71038 1.5ZM6 10.7914C4.18512 10.7914 2.70865 9.31488 2.70865 7.5C2.70865 5.68512 4.18514 4.20867 6 4.20867C7.81486 4.20867 9.29138 5.68514 9.29138 7.5C9.29138 9.31486 7.81486 10.7914 6 10.7914ZM9.48823 5.01178C8.93684 5.01178 8.48824 4.56319 8.48824 4.0118C8.48824 3.46041 8.93684 3.01179 9.48823 3.01179C10.0396 3.01179 10.4882 3.46038 10.4882 4.01177C10.4882 4.56316 10.0396 5.01178 9.48823 5.01178Z" fill="white"/>
</svg>
