<?xml version="1.0" encoding="utf-8"?>
<!-- Generator: Adobe Illustrator 27.1.1, SVG Export Plug-In . SVG Version: 6.00 Build 0)  -->
<svg version="1.0" id="Layer_1" xmlns="http://www.w3.org/2000/svg" xmlns:xlink="http://www.w3.org/1999/xlink" x="0px" y="0px"
	 viewBox="0 0 250 83.34" style="enable-background:new 0 0 250 83.34;" xml:space="preserve">
<g>
	<g>
		<polygon points="36.8,58.32 36.8,25.53 27.86,29.42 27.86,31.07 31.67,31.07 31.67,58.32 		"/>
	</g>
	<g>
		<path d="M105.29,18.96c-0.69-0.35-1.44-0.66-2.26-0.92c-0.82-0.26-1.61-0.39-2.39-0.39c-1.08,0-1.94,0.25-2.58,0.75
			c-0.64,0.5-0.96,1.17-0.96,2.01c0,0.63,0.2,1.17,0.61,1.6c0.41,0.43,0.95,0.81,1.62,1.13c0.67,0.32,1.36,0.61,2.09,0.89
			c0.63,0.24,1.25,0.51,1.86,0.81c0.61,0.3,1.17,0.67,1.66,1.11c0.49,0.45,0.88,1,1.17,1.64c0.29,0.65,0.43,1.46,0.43,2.42
			c0,1.06-0.26,2.03-0.79,2.9s-1.29,1.56-2.27,2.06c-0.99,0.5-2.16,0.75-3.51,0.75c-0.89,0-1.74-0.1-2.55-0.3
			c-0.81-0.21-1.56-0.47-2.24-0.79c-0.69-0.33-1.3-0.66-1.84-1.02l1.2-2.12c0.45,0.31,0.96,0.62,1.53,0.91
			c0.57,0.29,1.18,0.52,1.81,0.69c0.63,0.18,1.24,0.26,1.84,0.26c0.63,0,1.26-0.12,1.88-0.35c0.62-0.23,1.14-0.59,1.55-1.07
			c0.41-0.48,0.61-1.12,0.61-1.92c0-0.69-0.18-1.26-0.54-1.71c-0.36-0.45-0.84-0.84-1.43-1.17c-0.6-0.32-1.23-0.62-1.9-0.88
			c-0.63-0.24-1.27-0.51-1.92-0.79c-0.65-0.29-1.25-0.64-1.81-1.06c-0.56-0.42-1-0.93-1.34-1.55c-0.33-0.61-0.5-1.35-0.5-2.23
			c0-1.06,0.26-1.98,0.77-2.77s1.21-1.41,2.1-1.86c0.89-0.46,1.91-0.7,3.07-0.74c1.3,0,2.45,0.16,3.44,0.48
			c0.99,0.31,1.87,0.69,2.63,1.14L105.29,18.96z"/>
		<path d="M115.6,15.36h13.37v2.59h-5.41V35.5h-2.7V17.95h-5.27V15.36z"/>
		<path d="M144.73,15.36c1.02,0,1.96,0.14,2.83,0.4c0.86,0.27,1.62,0.67,2.26,1.2c0.64,0.53,1.14,1.18,1.5,1.95s0.54,1.67,0.54,2.69
			c0,0.8-0.12,1.58-0.35,2.34c-0.23,0.76-0.62,1.45-1.16,2.08c-0.54,0.62-1.24,1.12-2.1,1.5c-0.87,0.38-1.93,0.57-3.19,0.57h-2.98
			v7.41h-2.7V15.36H144.73z M145.01,25.5c0.8,0,1.46-0.12,1.99-0.36c0.53-0.24,0.94-0.55,1.24-0.93c0.3-0.38,0.51-0.79,0.64-1.24
			c0.13-0.44,0.19-0.86,0.19-1.25c0-0.41-0.07-0.83-0.21-1.27c-0.14-0.43-0.36-0.84-0.67-1.21c-0.3-0.37-0.71-0.68-1.2-0.92
			c-0.49-0.24-1.09-0.36-1.8-0.36h-3.12v7.55H145.01z M148.33,27.03l5.27,8.47h-3.12l-5.35-8.39L148.33,27.03z"/>
		<polygon points="179.61,35.5 170.83,14.53 170.67,14.53 161.87,35.5 164.51,35.5 170.63,20.52 176.52,35.5 		"/>
		<path d="M186.49,15.36h13.37v2.59h-5.41V35.5h-2.7V17.95h-5.27V15.36z"/>
		<path d="M212.7,28.37c0,0.91,0.22,1.72,0.65,2.44c0.44,0.72,1.02,1.28,1.74,1.69c0.72,0.41,1.54,0.61,2.45,0.61
			c0.95,0,1.79-0.2,2.54-0.61c0.74-0.41,1.33-0.97,1.75-1.69c0.43-0.71,0.64-1.53,0.64-2.44V15.36h2.65v13.09
			c0,1.47-0.34,2.75-1.02,3.85c-0.68,1.09-1.59,1.94-2.73,2.53c-1.14,0.6-2.42,0.89-3.83,0.89c-1.41,0-2.68-0.3-3.82-0.89
			c-1.13-0.59-2.03-1.44-2.7-2.53c-0.67-1.1-1-2.38-1-3.85V15.36h2.67V28.37z"/>
		<path d="M247.19,18.96c-0.69-0.35-1.44-0.66-2.26-0.92c-0.82-0.26-1.61-0.39-2.39-0.39c-1.08,0-1.94,0.25-2.58,0.75
			c-0.64,0.5-0.96,1.17-0.96,2.01c0,0.63,0.2,1.17,0.61,1.6c0.41,0.43,0.95,0.81,1.62,1.13c0.67,0.32,1.36,0.61,2.09,0.89
			c0.63,0.24,1.25,0.51,1.86,0.81c0.61,0.3,1.17,0.67,1.66,1.11c0.49,0.45,0.88,1,1.17,1.64c0.29,0.65,0.43,1.46,0.43,2.42
			c0,1.06-0.26,2.03-0.79,2.9c-0.53,0.87-1.29,1.56-2.27,2.06c-0.99,0.5-2.16,0.75-3.51,0.75c-0.89,0-1.74-0.1-2.55-0.3
			c-0.81-0.21-1.56-0.47-2.24-0.79c-0.69-0.33-1.3-0.66-1.84-1.02l1.2-2.12c0.45,0.31,0.96,0.62,1.53,0.91
			c0.57,0.29,1.18,0.52,1.81,0.69c0.63,0.18,1.24,0.26,1.84,0.26c0.63,0,1.26-0.12,1.88-0.35s1.14-0.59,1.55-1.07
			c0.41-0.48,0.61-1.12,0.61-1.92c0-0.69-0.18-1.26-0.54-1.71c-0.36-0.45-0.84-0.84-1.43-1.17c-0.6-0.32-1.23-0.62-1.9-0.88
			c-0.63-0.24-1.27-0.51-1.92-0.79s-1.25-0.64-1.81-1.06s-1-0.93-1.34-1.55c-0.33-0.61-0.5-1.35-0.5-2.23
			c0-1.06,0.26-1.98,0.77-2.77c0.51-0.79,1.21-1.41,2.1-1.86c0.89-0.46,1.91-0.7,3.07-0.74c1.3,0,2.45,0.16,3.44,0.48
			c0.99,0.31,1.87,0.69,2.63,1.14L247.19,18.96z"/>
		<g>
			<path d="M93.34,58.11c0-1.39,0.26-2.71,0.79-3.94c0.53-1.23,1.27-2.33,2.21-3.29c0.95-0.96,2.04-1.71,3.27-2.26
				c1.24-0.55,2.57-0.82,4-0.82c1.41,0,2.73,0.27,3.97,0.82c1.24,0.55,2.33,1.3,3.29,2.26c0.96,0.95,1.7,2.05,2.24,3.29
				c0.54,1.24,0.81,2.55,0.81,3.94c0,1.43-0.27,2.77-0.81,4.01c-0.54,1.25-1.28,2.34-2.23,3.27c-0.95,0.94-2.04,1.67-3.29,2.2
				c-1.25,0.53-2.57,0.79-3.98,0.79c-1.43,0-2.76-0.26-4-0.78c-1.23-0.52-2.33-1.24-3.27-2.17c-0.95-0.93-1.69-2.02-2.21-3.26
				C93.6,60.94,93.34,59.58,93.34,58.11z M96.13,58.14c0,1.06,0.2,2.05,0.59,2.97c0.39,0.92,0.93,1.73,1.61,2.44
				c0.69,0.71,1.49,1.26,2.4,1.66c0.91,0.4,1.89,0.6,2.95,0.6c1.04,0,2.02-0.2,2.93-0.6c0.91-0.4,1.7-0.95,2.37-1.66
				c0.67-0.7,1.2-1.52,1.59-2.44c0.39-0.92,0.59-1.92,0.59-2.99c0-1.06-0.2-2.06-0.59-2.99c-0.39-0.94-0.93-1.76-1.61-2.47
				c-0.69-0.71-1.49-1.26-2.4-1.66c-0.91-0.4-1.88-0.6-2.92-0.6c-1.06,0-2.04,0.21-2.95,0.61c-0.91,0.41-1.71,0.96-2.39,1.67
				c-0.69,0.71-1.22,1.53-1.59,2.47C96.31,56.08,96.13,57.08,96.13,58.14z"/>
			<path d="M142.03,68.81l-15.57-15.79l0.78,0.2l0.06,14.96h-2.7V47.41h0.14l15.4,15.85l-0.64-0.14l-0.05-15.1h2.67v20.78H142.03z"
				/>
			<path d="M154.04,48.03h13.09v2.59h-10.39v6.13h9.28v2.59h-9.28v6.24h10.78v2.59h-13.48V48.03z"/>
		</g>
	</g>
	<rect x="80.74" y="2.15" transform="matrix(-1 -1.224647e-16 1.224647e-16 -1 161.8537 83.3355)" width="0.37" height="79.03"/>
	<g>
		<path d="M34.4,74.51c-18.11,0-32.84-14.74-32.84-32.85C1.56,23.56,16.3,8.82,34.4,8.82c18.11,0,32.85,14.74,32.85,32.84
			C67.25,59.78,52.51,74.51,34.4,74.51z M34.4,10.36C17.14,10.36,3.1,24.4,3.1,41.67c0,17.27,14.04,31.31,31.31,31.31
			c17.27,0,31.31-14.04,31.31-31.31C65.71,24.4,51.67,10.36,34.4,10.36z"/>
	</g>
</g>
</svg>
