<svg width="24" height="24" viewBox="0 0 24 24" fill="none" xmlns="http://www.w3.org/2000/svg">
<g clip-path="url(#clip0_214_199)">
<path d="M23.7813 22.7465L17.8328 16.893C19.3905 15.2006 20.3477 12.9623 20.3477 10.4993C20.3469 5.23054 16.0072 0.959961 10.6534 0.959961C5.29969 0.959961 0.959961 5.23054 0.959961 10.4993C0.959961 15.7681 5.29969 20.0387 10.6534 20.0387C12.9666 20.0387 15.0882 19.2386 16.7547 17.9084L22.7263 23.785C23.0173 24.0716 23.4897 24.0716 23.7807 23.785C24.0723 23.4984 24.0723 23.0331 23.7813 22.7465ZM10.6534 18.571C6.12358 18.571 2.45144 14.9572 2.45144 10.4993C2.45144 6.04144 6.12358 2.42765 10.6534 2.42765C15.1833 2.42765 18.8554 6.04144 18.8554 10.4993C18.8554 14.9572 15.1833 18.571 10.6534 18.571Z" fill="white"/>
</g>
<defs>
<clipPath id="clip0_214_199">
<rect width="24" height="24" fill="white"/>
</clipPath>
</defs>
</svg>
