<svg width="40" height="40" viewBox="0 0 40 40" fill="none" xmlns="http://www.w3.org/2000/svg">
<g clip-path="url(#clip0_238_1391)">
<path d="M36.4844 11.8016H34.0296C31.9418 6.84424 27.3445 3.24166 22.052 2.55361C16.8071 1.85439 11.6538 3.87314 8.28242 7.93689C7.29133 9.13166 6.50516 10.4306 5.92953 11.8016H3.51562C1.57703 11.8016 0 13.3786 0 15.3172V20.0047C0 21.9433 1.57703 23.5203 3.51562 23.5203H8.3282L7.82469 21.9834C6.35867 17.5064 7.18383 12.9322 10.0872 9.43377C12.9402 5.99478 17.297 4.29307 21.7476 4.87674C26.4544 5.48986 30.5399 8.81854 32.1587 13.3591L32.1685 13.3854C32.4295 14.0789 32.6126 14.7919 32.7178 15.5255C33.0691 17.7171 32.8689 19.9383 32.1399 21.9491L32.1348 21.9631C30.3253 27.1005 25.4586 30.5516 20.0229 30.5516C18.0716 30.5516 16.4844 32.1286 16.4844 34.0672C16.4844 36.0058 18.0614 37.5828 20 37.5828C21.9386 37.5828 23.5156 36.0058 23.5156 34.0672V32.4867C28.1948 31.3745 32.1252 28.0576 34.0143 23.5203H36.4844C38.423 23.5203 40 21.9432 40 20.0046V15.3171C40 13.3785 38.423 11.8016 36.4844 11.8016Z" fill="white"/>
<path d="M9.45312 25.864V28.2078H20C25.8159 28.2078 30.5469 23.4767 30.5469 17.6609C30.5469 11.845 25.8159 7.11401 20 7.11401C14.1841 7.11401 9.45312 11.845 9.45312 17.6609C9.45312 20.0321 10.2496 22.3232 11.7053 24.176C11.4227 25.1636 10.5209 25.864 9.45312 25.864ZM23.5156 16.489H25.8594V18.8328H23.5156V16.489ZM18.8281 16.489H21.1719V18.8328H18.8281V16.489ZM14.1406 16.489H16.4844V18.8328H14.1406V16.489Z" fill="white"/>
</g>
<defs>
<clipPath id="clip0_238_1391">
<rect width="40" height="40" fill="white"/>
</clipPath>
</defs>
</svg>
