<svg width="16" height="16" viewBox="0 0 16 16" fill="none" xmlns="http://www.w3.org/2000/svg">
<path d="M15.1831 4.64337C15.0103 4.00076 14.5036 3.4942 13.8611 3.32117C12.6873 3 7.992 3 7.992 3C7.992 3 3.29691 3 2.12311 3.30899C1.49295 3.48184 0.973938 4.00085 0.801086 4.64337C0.492188 5.81708 0.492188 8.25119 0.492188 8.25119C0.492188 8.25119 0.492188 10.6976 0.801086 11.859C0.974121 12.5015 1.48059 13.0081 2.1232 13.1811C3.30927 13.5024 7.99219 13.5024 7.99219 13.5024C7.99219 13.5024 12.6873 13.5024 13.8611 13.1934C14.5037 13.0204 15.0103 12.5139 15.1833 11.8714C15.4921 10.6976 15.4921 8.26355 15.4921 8.26355C15.4921 8.26355 15.5045 5.81708 15.1831 4.64337ZM6.49713 10.4999V6.00247L10.4015 8.25119L6.49713 10.4999Z" fill="white"/>
</svg>
